<svg xmlns="http://www.w3.org/2000/svg" viewBox="0 0 800 800">
<style type="text/css">
	.st0{fill:#FFFFFF;}
	.st1{fill:url(#cf_logo_2026);}
</style>
<path class="st0" d="M687,800H113C50.6,800,0,749.4,0,687V113C0,50.6,50.6,0,113,0h574c62.4,0,113,50.6,113,113v574
	C800,749.4,749.4,800,687,800z"/>
<linearGradient id="cf_logo_2026" gradientUnits="userSpaceOnUse" x1="218.2983" y1="734.1288" x2="606.5604" y2="61.6391">
	<stop  offset="0" style="stop-color:#3DE87A"/>
	<stop  offset="0.4325" style="stop-color:#34B6AE"/>
	<stop  offset="0.8047" style="stop-color:#2E91D4"/>
	<stop  offset="1" style="stop-color:#2B83E2"/>
</linearGradient>
<path class="st1" d="M745.3,401c-0.4-0.5-1.6-2.2-2.7-3.8c-4.7-7-19.3-14.2-36.8-17.9c-42-9.1-111-6-186,8.2
	c-30.5,5.8-66.2,14.3-107.9,26c-8.4,2.3-22.3,6.2-30.9,8.6c-19.9,5.5-61.7,15.5-80.8,19.2c-18.9,3.7-47.6,8.1-64.8,9.9
	c-38.9,4.2-73.3,4.1-97.4-0.3c-16.6-3-30.1-8.9-36.4-16.1c-4-4.5-5.5-15-2.8-21c2.4-5.8,6.3-11.4,12.5-18c5.9-6.2,4.4-5.8-7.3,2.4
	c-22.5,15.9-36.8,30.4-41.8,42.9c-2.9,7.4-1.6,18.6,2.8,24c10.1,12.2,34.9,20.4,68.9,22.7c12.3,0.8,36.1,0.7,51.2-0.1
	c16.7-1,42.2-3.9,62-7c23.4-3.7,42.9-7.6,69.5-14c25.9-6.2,38.5-9.8,79-22c42.4-12.8,52.7-15.6,84.5-23.4
	c17.7-4.3,31.9-7.6,38.4-8.8c53.7-10.5,91.1-14.5,129.8-14.1c40.4,0.5,65.1,7.2,75.6,20.5c3.1,3.8,4.7,13.3,3.1,17.9
	c-1.1,3.2-0.4,4.1,1.9,2.5c2.1-1.4,9.7-10.4,12-14.1c3.9-6.3,5.6-11.8,5.3-17.6C746.2,404.4,745.8,401.5,745.3,401z M670.1,127
	c10.5,2.1,33.3,8.8,36.4,10.5c3.4,1.9,0,2.3-9.5,1.2c-13.7-1.7-45.7-1.5-60.6,0.4c-51.4,6.4-92.6,24.2-126.1,54.3
	c-31.9,28.9-48.3,57.2-56.5,98.4c-0.9,5-1.5,16-1.5,29.6c0.1,24.5,1.3,32.6,9.4,65.5c0.2,0.8,0.4,1.6,0.6,2.3
	c-7.8,1.9-15.7,3.9-23.7,6.1c-12,3.1-31.6,8.3-43.8,11.4c-4.6,1.2-10.2,2.6-16.2,4c-0.2-5.9-0.6-11.2-1.2-15.3
	c-0.9-6.7-2.6-17.4-3.5-24c-4.9-32.3-4.7-59.9,0.6-83.3c12.9-57.5,57.2-109.3,119.6-139.7c25.9-12.7,60.6-22.8,87-25.6
	c6.1-0.6,12.7-1.4,14.6-1.6c2-0.3,11.7-0.3,21.7,0C636.1,121.6,652.9,123.4,670.1,127z M139.4,583.3l-19.4,0.4l8.2-1.7
	c24.3-4.9,41.2-12.7,55.9-25.8c11-9.8,16-17.3,19.4-29.6c1.5-5.2,1.9-12.2,1.5-19.5c0.6,0,1.2-0.1,1.8-0.1
	c33.4-2,61.2-5.7,98.8-13.2c0.6-0.1,1.2-0.2,1.8-0.4c-7,13.4-16.3,25.3-28.3,36.7c-19.6,18.6-43.6,32.5-72.7,42
	C183,579.9,165.8,582.7,139.4,583.3z M591.6,364.8c-23.7,2.7-49.7,6.9-78,12.7c-4.1-16.8-5.6-26.9-6.3-40.6
	c-2-40.2,10.7-75.4,37.8-104.9c20.7-22.5,51-41.4,79.4-49.6c5.4-1.5,11.2-3.2,12.8-3.6c4.5-1.4,5.5-1.2,2.9,0.6
	c-1.3,0.8-6.7,4.3-12,7.8c-49,32.5-57.4,83.8-21.6,132.1c7.6,10.4,15,18.6,36.9,41c0.1,0.1,0.2,0.2,0.3,0.4
	C626.7,361.5,609.3,362.8,591.6,364.8z M703.5,438c27.5,60.4,16.9,132.1-28.4,191.7c-49.8,65.5-139.7,115.8-233.9,130.6
	c-23.5,3.7-37.3,4.7-65.2,4.7c-29,0-46-1.7-75.1-7.3c-66.1-12.8-130.2-44.3-181.9-89.2c-13.4-11.6-31.8-30.4-30.8-31.4
	c0.2-0.2,5.5,2.6,11.7,6.4c6.2,3.7,20,10.7,30.4,15.3c40.5,18,84.2,27.6,125.5,27.6c61.2,0,126.5-20.6,176.7-55.7
	c21.6-15,44.7-38,59.6-59c22.2-31.4,35.8-73.7,35.8-111.6c0-8.7-0.4-16.3-1.4-24.5c3.3-0.7,6.7-1.4,10.4-2.1
	c25-5.1,45.3-8.7,54.5-9.9c38.3-4.7,70.9-6.7,100.8-6C696.7,424.2,700.2,430.7,703.5,438z M188,635.6
	c-36.5-5.1-72.7-17.2-106.4-35.7c-17.4-9.6-17.7-10.8-2.1-5.7c16.7,5.3,31.8,8.8,48.7,11.2c17.6,2.6,52.6,2.6,70.4,0.1
	c28.1-3.9,58.1-13.4,80.8-25.5c33.2-17.5,60.7-43.2,77.7-72.7c4.4-7.7,9.1-18.3,12.8-28.7c12.7-3.6,27.8-8.1,47.5-14
	c23.1-7,39.5-11.8,53.4-15.7c-0.2,20.2-2.8,35.1-9.2,52.8c-5.4,15.1-16.2,34.5-26.1,47c-9.2,11.4-27.6,29.2-39.9,38.3
	c-34.3,25.2-80.2,42.8-127.7,49C247,638.7,209.8,638.5,188,635.6z M124.2,375.3c-24.8-46.7-27.5-99.6-7.6-150.7
	c24.4-63.2,87-123.6,163.7-158.1c45.2-20.4,87.9-31.2,142.2-35.8c9.6-0.8,43.9-0.6,56.4,0.3c61.9,4.9,119.9,23.7,169.1,54.9
	c11.6,7.4,31.7,22,31.7,23c0,0.2-3.1-1.1-6.7-2.6c-26.8-12.1-59.4-17.8-96-16.8c-67.5,1.7-130.3,25.9-181.2,70
	C329.2,217,303.2,288.4,317.5,373c4.5,26.6,5.6,34.5,5.7,49.2c-16.7,3.1-32.3,5.6-42.9,6.9c-26.8,3.3-67.7,5.4-92.5,4.8
	c-7.3-0.2-14.4-0.5-21.5-1c-1.6-1.9-3.3-3.9-5-6.1C138.8,400,132.9,391.7,124.2,375.3z"/>
</svg>
