<?xml version="1.0" encoding="utf-8"?>
<!-- Generator: Adobe Illustrator 27.2.0, SVG Export Plug-In . SVG Version: 6.00 Build 0)  -->
<svg version="1.1" id="图层_1" xmlns="http://www.w3.org/2000/svg" xmlns:xlink="http://www.w3.org/1999/xlink" x="0px" y="0px"
	 viewBox="0 0 800 800" style="enable-background:new 0 0 800 800;" xml:space="preserve">
<style type="text/css">
	.st0{fill:#512BD4;}
	.st1{fill:#3B82F6;}
	.st2{fill:#6AF43D;}
</style>
<path class="st0" d="M429,120.4c-54.2,3.5-97,11.8-142.2,27.3c-76.7,26.3-139.3,72.3-163.7,120.5c-19.8,39-17.1,79.3,7.6,114.9
	c8.7,12.5,14.7,18.9,37,39.2c28.1,25.7,33.6,31.9,39.9,45.5c4.2,8.9,5.4,22.7,2.5,30.6c-3.4,9.3-8.3,15.1-19.4,22.6
	c-14.7,10-31.6,16-55.9,19.7l-8.2,1.3l19.4-0.3c26.4-0.5,43.6-2.7,67-8.5c29.1-7.3,53.1-17.8,72.7-32c22.5-16.3,35.5-34,41.9-57.8
	c1.4-5.1,2-11.4,2-21.3c0-13.5-0.8-18.6-5.8-40.7c-14.3-64.5,11.7-118.9,78.3-162.7c50.8-33.6,113.7-52,181.2-53.3
	c36.6-0.7,69.3,3.6,96,12.8c3.6,1.2,6.7,2.2,6.7,2c0-0.8-20.1-11.9-31.7-17.6c-49.2-23.8-107.2-38.1-169.1-41.8
	C472.9,119.9,438.7,119.8,429,120.4z M602.2,189.4c-1.9,0.2-8.5,0.7-14.6,1.2c-26.4,2.1-61.1,9.8-87,19.5
	c-62.5,23.2-106.7,62.7-119.6,106.5c-5.3,17.8-5.5,38.8-0.6,63.5c0.9,5,2.6,13.2,3.5,18.3c2.3,11.8,1.6,36.3-1.3,47.5
	c-2.9,11-11.3,27.7-18.8,37.7c-17,22.5-44.5,42.1-77.7,55.4c-22.7,9.2-52.7,16.4-80.8,19.4c-17.8,1.9-52.8,1.9-70.4-0.1
	c-16.9-1.9-32.1-4.5-48.7-8.5c-15.6-3.9-15.3-3,2.1,4.4c33.7,14.1,69.9,23.4,106.4,27.2c21.7,2.3,58.9,2.4,80,0.3
	c47.6-4.8,93.5-18.2,127.7-37.4c12.3-6.9,30.8-20.5,39.9-29.2c9.9-9.6,20.7-24.3,26.1-35.9c6.5-13.6,9-25.1,9.2-40.7
	c0.1-15.2-1.4-22.7-9.2-46.7c-8.1-25.1-9.3-31.3-9.4-49.9c0-10.4,0.6-18.8,1.5-22.6c8.2-31.4,24.5-53,56.5-75
	c33.5-23,74.7-36.5,126.1-41.4c14.9-1.5,46.8-1.6,60.6-0.3c9.5,0.9,12.9,0.6,9.5-0.9c-3.1-1.3-25.9-6.4-36.4-8
	c-17.3-2.7-34.1-4.1-52.8-4.4C614,189.2,604.2,189.2,602.2,189.4z M643.9,233.4c-1.6,0.3-7.4,1.6-12.8,2.7
	c-28.4,6.2-58.7,20.6-79.4,37.8c-27.1,22.5-39.8,49.3-37.8,79.9c0.9,12.9,2.9,21.5,9.6,40.7c8.7,24.8,11.2,36.6,11.2,53.1
	c0,28.9-13.6,61.1-35.8,85.1c-14.9,16-38,33.5-59.6,45c-50.3,26.7-115.5,42.5-176.7,42.5c-41.3,0-85-7.3-125.5-21
	c-10.5-3.5-24.2-8.9-30.4-11.7c-6.2-2.9-11.5-5.1-11.7-4.9c-1.1,0.7,17.4,15.1,30.8,23.9c51.7,34.2,115.8,58.2,181.9,68
	c29.1,4.3,46.1,5.6,75.1,5.6c27.8,0,41.7-0.7,65.2-3.5c94.2-11.3,184.1-49.5,233.9-99.5c45.3-45.4,55.9-100.1,28.4-146.1
	c-10.7-17.8-23.1-30.1-60-59.1c-21.8-17.1-29.2-23.4-36.9-31.3c-35.8-36.8-27.4-76,21.6-100.7c5.3-2.7,10.7-5.3,12-6
	C649.4,232.6,648.4,232.4,643.9,233.4z"/>
<path class="st1" d="M923.5,449.4c-0.5-1-2.5-4.4-4.1-7.6c-7.3-13.7-28.9-29.9-54.4-40.6c-61.2-25.7-160.1-35.4-266.8-26.2
	c-43.4,3.7-94.1,11.4-153.1,23.2c-12,2.4-31.6,6.3-43.8,8.7c-28.1,5.7-87.4,14.4-114.7,16.9c-26.8,2.5-67.7,4.1-92.5,3.7
	c-55.6-1-105.1-8.8-140.2-22.1c-24.1-9-44.1-22.9-53.6-37.2c-6.2-9.1-9.1-28.3-5.8-38.7c3-10,8.2-19.3,16.5-29.9
	c8-10,5.9-9.5-10.3,2.8c-31.1,23.7-50.4,47.1-56.6,68.6c-3.6,12.8-0.8,33.3,6,44.1c15.5,24.4,51.8,44.6,100.9,56.3
	c17.7,4.2,51.9,9.3,73.7,11.1c23.9,1.9,60.4,2.3,88.6,1c33.4-1.5,61.2-4.3,98.8-10.1c36.7-5.6,54.6-9.2,111.8-22.4
	c59.9-13.8,74.6-16.7,119.6-23.7c25-3.9,45.3-6.6,54.5-7.5c76.4-7.2,129.8-6.2,185.5,3.2c58.2,9.9,94.3,27.5,110.5,53.9
	c4.8,7.7,7.8,25.1,5.9,33.2c-1.3,5.6-0.3,7.3,2.9,4.9c2.8-2.2,13.1-16.6,16.1-23c5.1-10.5,7-20.2,6.2-30.7
	C925.1,455.8,924.3,450.4,923.5,449.4z"/>
<path class="st2" d="M751.9,402.7c-0.4-0.4-1.6-1.7-2.7-2.9c-4.7-5.3-19.3-10.8-36.8-13.6c-42-6.9-111-4.6-186,6.3
	c-30.5,4.4-66.2,10.9-107.9,19.8c-8.4,1.8-22.3,4.7-30.9,6.5c-19.9,4.2-61.7,11.8-80.8,14.6c-18.9,2.8-47.6,6.1-64.8,7.6
	c-38.9,3.2-73.3,3.1-97.4-0.3c-16.6-2.3-30.1-6.8-36.4-12.3c-4-3.4-5.5-11.4-2.8-16c2.4-4.4,6.3-8.7,12.5-13.7
	c5.9-4.8,4.4-4.4-7.3,1.8c-22.5,12.1-36.8,23.2-41.8,32.7c-2.9,5.6-1.6,14.1,2.8,18.3c10.1,9.3,34.9,15.5,68.9,17.3
	c12.3,0.6,36.1,0.6,51.2-0.1c16.7-0.8,42.2-2.9,62-5.3c23.4-2.8,42.9-5.8,69.5-10.7c25.9-4.8,38.5-7.5,79-16.7
	c42.4-9.7,52.7-11.9,84.5-17.8c17.7-3.3,31.9-5.8,38.4-6.7c53.7-8,91.1-11.1,129.8-10.7c40.4,0.4,65.1,5.5,75.6,15.6
	c3.1,2.9,4.7,10.1,3.1,13.7c-1.1,2.4-0.4,3.1,1.9,1.9c2.1-1.1,9.7-7.9,12-10.8c3.9-4.8,5.6-9,5.3-13.4
	C752.8,405.3,752.4,403.1,751.9,402.7z"/>
</svg>
